<mxfile host="app.diagrams.net" agent="Mozilla/5.0 (Windows NT 10.0; Win64; x64) AppleWebKit/537.36 (KHTML, like Gecko) Chrome/125.0.0.0 Safari/537.36 OPR/111.0.0.0" version="24.7.8">
  <diagram name="Page-1" id="MXdiSUU2xYA6grIpOsWV">
    <mxGraphModel dx="1391" dy="803" grid="1" gridSize="10" guides="1" tooltips="1" connect="1" arrows="1" fold="1" page="1" pageScale="1" pageWidth="850" pageHeight="1100" math="0" shadow="0">
      <root>
        <mxCell id="0" />
        <mxCell id="1" parent="0" />
        <mxCell id="BcWJA3hrCVwfeLqlHlsh-16" style="edgeStyle=orthogonalEdgeStyle;rounded=0;orthogonalLoop=1;jettySize=auto;html=1;exitX=0.5;exitY=1;exitDx=0;exitDy=0;entryX=0.5;entryY=0;entryDx=0;entryDy=0;" edge="1" parent="1" source="BcWJA3hrCVwfeLqlHlsh-1" target="BcWJA3hrCVwfeLqlHlsh-4">
          <mxGeometry relative="1" as="geometry" />
        </mxCell>
        <mxCell id="BcWJA3hrCVwfeLqlHlsh-1" value="START" style="ellipse;whiteSpace=wrap;html=1;fontSize=11;" vertex="1" parent="1">
          <mxGeometry x="40" y="40" width="120" height="80" as="geometry" />
        </mxCell>
        <mxCell id="BcWJA3hrCVwfeLqlHlsh-2" value="INPUT bathrooms" style="shape=parallelogram;perimeter=parallelogramPerimeter;whiteSpace=wrap;html=1;fixedSize=1;fontSize=11;" vertex="1" parent="1">
          <mxGeometry x="40" y="390" width="120" height="60" as="geometry" />
        </mxCell>
        <mxCell id="BcWJA3hrCVwfeLqlHlsh-18" style="edgeStyle=orthogonalEdgeStyle;rounded=0;orthogonalLoop=1;jettySize=auto;html=1;exitX=0.5;exitY=1;exitDx=0;exitDy=0;entryX=0.5;entryY=0;entryDx=0;entryDy=0;" edge="1" parent="1" source="BcWJA3hrCVwfeLqlHlsh-3" target="BcWJA3hrCVwfeLqlHlsh-2">
          <mxGeometry relative="1" as="geometry" />
        </mxCell>
        <mxCell id="BcWJA3hrCVwfeLqlHlsh-3" value="INPUT lastName" style="shape=parallelogram;perimeter=parallelogramPerimeter;whiteSpace=wrap;html=1;fixedSize=1;fontSize=11;" vertex="1" parent="1">
          <mxGeometry x="40" y="280" width="120" height="60" as="geometry" />
        </mxCell>
        <mxCell id="BcWJA3hrCVwfeLqlHlsh-17" style="edgeStyle=orthogonalEdgeStyle;rounded=0;orthogonalLoop=1;jettySize=auto;html=1;exitX=0.5;exitY=1;exitDx=0;exitDy=0;entryX=0.5;entryY=0;entryDx=0;entryDy=0;" edge="1" parent="1" source="BcWJA3hrCVwfeLqlHlsh-4" target="BcWJA3hrCVwfeLqlHlsh-3">
          <mxGeometry relative="1" as="geometry" />
        </mxCell>
        <mxCell id="BcWJA3hrCVwfeLqlHlsh-4" value="lastName = &#39;&#39;&lt;div style=&quot;font-size: 11px;&quot;&gt;bathrooms = 0&lt;/div&gt;&lt;div style=&quot;font-size: 11px;&quot;&gt;otherRooms = 0&lt;/div&gt;&lt;div style=&quot;font-size: 11px;&quot;&gt;cost = 0&lt;/div&gt;" style="rounded=0;whiteSpace=wrap;html=1;fontSize=11;" vertex="1" parent="1">
          <mxGeometry x="40" y="170" width="120" height="60" as="geometry" />
        </mxCell>
        <mxCell id="BcWJA3hrCVwfeLqlHlsh-19" style="edgeStyle=orthogonalEdgeStyle;rounded=0;orthogonalLoop=1;jettySize=auto;html=1;exitX=0.5;exitY=1;exitDx=0;exitDy=0;entryX=0.5;entryY=0;entryDx=0;entryDy=0;" edge="1" parent="1" source="BcWJA3hrCVwfeLqlHlsh-5" target="BcWJA3hrCVwfeLqlHlsh-6">
          <mxGeometry relative="1" as="geometry" />
        </mxCell>
        <mxCell id="BcWJA3hrCVwfeLqlHlsh-5" value="INPUT otherRooms" style="shape=parallelogram;perimeter=parallelogramPerimeter;whiteSpace=wrap;html=1;fixedSize=1;fontSize=11;" vertex="1" parent="1">
          <mxGeometry x="40" y="500" width="120" height="60" as="geometry" />
        </mxCell>
        <mxCell id="BcWJA3hrCVwfeLqlHlsh-20" style="edgeStyle=orthogonalEdgeStyle;rounded=0;orthogonalLoop=1;jettySize=auto;html=1;exitX=0.5;exitY=1;exitDx=0;exitDy=0;entryX=0.5;entryY=0;entryDx=0;entryDy=0;" edge="1" parent="1" source="BcWJA3hrCVwfeLqlHlsh-6" target="BcWJA3hrCVwfeLqlHlsh-7">
          <mxGeometry relative="1" as="geometry" />
        </mxCell>
        <mxCell id="BcWJA3hrCVwfeLqlHlsh-6" value="cost = 40 + (15 * bathrooms) + (10 * otherRooms)" style="rounded=0;whiteSpace=wrap;html=1;fontSize=11;" vertex="1" parent="1">
          <mxGeometry x="40" y="610" width="120" height="60" as="geometry" />
        </mxCell>
        <mxCell id="BcWJA3hrCVwfeLqlHlsh-7" value="OUTPUT lastName" style="shape=parallelogram;perimeter=parallelogramPerimeter;whiteSpace=wrap;html=1;fixedSize=1;fontSize=11;" vertex="1" parent="1">
          <mxGeometry x="40" y="720" width="120" height="60" as="geometry" />
        </mxCell>
        <mxCell id="BcWJA3hrCVwfeLqlHlsh-8" value="END" style="ellipse;whiteSpace=wrap;html=1;fontSize=11;" vertex="1" parent="1">
          <mxGeometry x="260" y="270" width="120" height="80" as="geometry" />
        </mxCell>
        <mxCell id="BcWJA3hrCVwfeLqlHlsh-22" style="edgeStyle=orthogonalEdgeStyle;rounded=0;orthogonalLoop=1;jettySize=auto;html=1;exitX=0.5;exitY=0;exitDx=0;exitDy=0;entryX=0.5;entryY=1;entryDx=0;entryDy=0;" edge="1" parent="1" source="BcWJA3hrCVwfeLqlHlsh-9" target="BcWJA3hrCVwfeLqlHlsh-13">
          <mxGeometry relative="1" as="geometry" />
        </mxCell>
        <mxCell id="BcWJA3hrCVwfeLqlHlsh-9" value="OUTPUT&lt;div&gt;&quot;Bathrooms: &quot; + bathrooms + &quot; costs &quot; + (15 * bathrooms) + &quot; to clean&quot;&lt;/div&gt;" style="shape=parallelogram;perimeter=parallelogramPerimeter;whiteSpace=wrap;html=1;fixedSize=1;fontSize=11;" vertex="1" parent="1">
          <mxGeometry x="200" y="720" width="200" height="80" as="geometry" />
        </mxCell>
        <mxCell id="BcWJA3hrCVwfeLqlHlsh-13" value="OUTPUT&lt;div&gt;&quot;Other Rooms: &quot; + otherRooms + &quot; costs &quot; + (10 * otherRooms) + &quot; to clean&quot;&lt;/div&gt;" style="shape=parallelogram;perimeter=parallelogramPerimeter;whiteSpace=wrap;html=1;fixedSize=1;fontSize=11;" vertex="1" parent="1">
          <mxGeometry x="200" y="600" width="200" height="80" as="geometry" />
        </mxCell>
        <mxCell id="BcWJA3hrCVwfeLqlHlsh-24" value="" style="edgeStyle=orthogonalEdgeStyle;rounded=0;orthogonalLoop=1;jettySize=auto;html=1;entryX=0.425;entryY=1.05;entryDx=0;entryDy=0;entryPerimeter=0;" edge="1" parent="1" source="BcWJA3hrCVwfeLqlHlsh-14" target="BcWJA3hrCVwfeLqlHlsh-15">
          <mxGeometry relative="1" as="geometry" />
        </mxCell>
        <mxCell id="BcWJA3hrCVwfeLqlHlsh-14" value="OUTPUT&lt;div&gt;&quot;Total Cost: &quot; + cost&lt;/div&gt;" style="shape=parallelogram;perimeter=parallelogramPerimeter;whiteSpace=wrap;html=1;fixedSize=1;fontSize=11;" vertex="1" parent="1">
          <mxGeometry x="250" y="500" width="120" height="60" as="geometry" />
        </mxCell>
        <mxCell id="BcWJA3hrCVwfeLqlHlsh-25" value="" style="edgeStyle=orthogonalEdgeStyle;rounded=0;orthogonalLoop=1;jettySize=auto;html=1;" edge="1" parent="1" source="BcWJA3hrCVwfeLqlHlsh-15" target="BcWJA3hrCVwfeLqlHlsh-8">
          <mxGeometry relative="1" as="geometry" />
        </mxCell>
        <mxCell id="BcWJA3hrCVwfeLqlHlsh-15" value="OUTPUT&lt;div&gt;&quot;All done!&quot;&lt;/div&gt;" style="shape=parallelogram;perimeter=parallelogramPerimeter;whiteSpace=wrap;html=1;fixedSize=1;" vertex="1" parent="1">
          <mxGeometry x="260" y="390" width="120" height="60" as="geometry" />
        </mxCell>
        <mxCell id="BcWJA3hrCVwfeLqlHlsh-21" style="edgeStyle=orthogonalEdgeStyle;rounded=0;orthogonalLoop=1;jettySize=auto;html=1;exitX=1;exitY=0.5;exitDx=0;exitDy=0;entryX=0.075;entryY=0.375;entryDx=0;entryDy=0;entryPerimeter=0;" edge="1" parent="1" source="BcWJA3hrCVwfeLqlHlsh-7" target="BcWJA3hrCVwfeLqlHlsh-9">
          <mxGeometry relative="1" as="geometry" />
        </mxCell>
        <mxCell id="BcWJA3hrCVwfeLqlHlsh-27" style="edgeStyle=orthogonalEdgeStyle;rounded=0;orthogonalLoop=1;jettySize=auto;html=1;exitX=0.5;exitY=0;exitDx=0;exitDy=0;entryX=0.417;entryY=1;entryDx=0;entryDy=0;entryPerimeter=0;" edge="1" parent="1" source="BcWJA3hrCVwfeLqlHlsh-13" target="BcWJA3hrCVwfeLqlHlsh-14">
          <mxGeometry relative="1" as="geometry" />
        </mxCell>
      </root>
    </mxGraphModel>
  </diagram>
</mxfile>
